<svg width="52" height="32" viewBox="0 0 52 32" fill="none" xmlns="http://www.w3.org/2000/svg">
<circle cx="16" cy="16" r="16" fill="#DCD3CB"/>
<path d="M6.97869 21H5.34801L9.01207 10.8182H10.7869L14.451 21H12.8203L9.94176 12.6676H9.86222L6.97869 21ZM7.25213 17.0128H12.5419V18.3054H7.25213V17.0128ZM15.9213 21V10.8182H17.4576V15.2429H22.5336V10.8182H24.0748V21H22.5336V16.5604H17.4576V21H15.9213Z" fill="#192A36"/>
<path fill-rule="evenodd" clip-rule="evenodd" d="M39.862 13.5285C40.1224 13.2682 40.5445 13.2682 40.8048 13.5285L44.3334 17.0571L47.862 13.5285C48.1224 13.2682 48.5445 13.2682 48.8048 13.5285C49.0652 13.7889 49.0652 14.211 48.8048 14.4713L44.8048 18.4713C44.5445 18.7317 44.1224 18.7317 43.862 18.4713L39.862 14.4713C39.6017 14.211 39.6017 13.7889 39.862 13.5285Z" fill="#D4DADE"/>
</svg>
