<svg width="16" height="16" viewBox="0 0 16 16" fill="none" xmlns="http://www.w3.org/2000/svg">
<path fill-rule="evenodd" clip-rule="evenodd" d="M1.66663 4.50008C1.66663 2.93527 2.93515 1.66675 4.49996 1.66675C6.06477 1.66675 7.33329 2.93527 7.33329 4.50008C7.33329 6.06489 6.06477 7.33341 4.49996 7.33341C2.93515 7.33341 1.66663 6.06489 1.66663 4.50008ZM4.49996 3.00008C3.67153 3.00008 2.99996 3.67165 2.99996 4.50008C2.99996 5.32851 3.67153 6.00008 4.49996 6.00008C5.32839 6.00008 5.99996 5.32851 5.99996 4.50008C5.99996 3.67165 5.32839 3.00008 4.49996 3.00008Z" fill="#D4DADE"/>
<path fill-rule="evenodd" clip-rule="evenodd" d="M11.5 1.66675C9.93515 1.66675 8.66663 2.93527 8.66663 4.50008C8.66663 6.06489 9.93515 7.33341 11.5 7.33341C13.0648 7.33341 14.3333 6.06489 14.3333 4.50008C14.3333 2.93527 13.0648 1.66675 11.5 1.66675ZM9.99996 4.50008C9.99996 3.67165 10.6715 3.00008 11.5 3.00008C12.3284 3.00008 13 3.67165 13 4.50008C13 5.32851 12.3284 6.00008 11.5 6.00008C10.6715 6.00008 9.99996 5.32851 9.99996 4.50008Z" fill="#D4DADE"/>
<path fill-rule="evenodd" clip-rule="evenodd" d="M11.5 8.66675C9.93515 8.66675 8.66663 9.93527 8.66663 11.5001C8.66663 13.0649 9.93515 14.3334 11.5 14.3334C13.0648 14.3334 14.3333 13.0649 14.3333 11.5001C14.3333 9.93527 13.0648 8.66675 11.5 8.66675ZM9.99996 11.5001C9.99996 10.6717 10.6715 10.0001 11.5 10.0001C12.3284 10.0001 13 10.6717 13 11.5001C13 12.3285 12.3284 13.0001 11.5 13.0001C10.6715 13.0001 9.99996 12.3285 9.99996 11.5001Z" fill="#D4DADE"/>
<path fill-rule="evenodd" clip-rule="evenodd" d="M4.49996 8.66675C2.93515 8.66675 1.66663 9.93527 1.66663 11.5001C1.66663 13.0649 2.93515 14.3334 4.49996 14.3334C6.06477 14.3334 7.33329 13.0649 7.33329 11.5001C7.33329 9.93527 6.06477 8.66675 4.49996 8.66675ZM2.99996 11.5001C2.99996 10.6717 3.67153 10.0001 4.49996 10.0001C5.32839 10.0001 5.99996 10.6717 5.99996 11.5001C5.99996 12.3285 5.32839 13.0001 4.49996 13.0001C3.67153 13.0001 2.99996 12.3285 2.99996 11.5001Z" fill="#D4DADE"/>
</svg>
