<svg width="16" height="16" viewBox="0 0 16 16" fill="none" xmlns="http://www.w3.org/2000/svg">
<path fill-rule="evenodd" clip-rule="evenodd" d="M2.81451 2.8145C4.14087 1.48817 5.97511 0.666626 7.99996 0.666626C10.0248 0.666626 11.8591 1.48817 13.1854 2.81451C14.5117 4.14086 15.3333 5.97511 15.3333 7.99996C15.3333 10.0248 14.5117 11.8591 13.1854 13.1854C11.8591 14.5117 10.0248 15.3333 7.99996 15.3333C5.97511 15.3333 4.14087 14.5117 2.81451 13.1854C1.48817 11.8591 0.666626 10.0248 0.666626 7.99996C0.666626 5.97511 1.48818 4.14086 2.81451 2.8145ZM11.8047 6.47136C12.065 6.21101 12.065 5.7889 11.8047 5.52855C11.5443 5.26821 11.1222 5.26821 10.8619 5.52855L7.33329 9.05715L5.8047 7.52855C5.54435 7.2682 5.12224 7.2682 4.86189 7.52855C4.60154 7.7889 4.60154 8.21101 4.86189 8.47136L6.86189 10.4714C7.12224 10.7317 7.54435 10.7317 7.8047 10.4714L11.8047 6.47136Z" fill="white"/>
</svg>
