<svg width="16" height="16" viewBox="0 0 16 16" fill="none" xmlns="http://www.w3.org/2000/svg">
<path fill-rule="evenodd" clip-rule="evenodd" d="M5.6665 3.66666C5.6665 2.378 6.71117 1.33333 7.99984 1.33333C9.2885 1.33333 10.3332 2.378 10.3332 3.66666C10.3332 4.95533 9.2885 6 7.99984 6C6.71117 6 5.6665 4.95533 5.6665 3.66666ZM7.99984 2.66666C7.44755 2.66666 6.99984 3.11438 6.99984 3.66666C6.99984 4.21895 7.44755 4.66666 7.99984 4.66666C8.55212 4.66666 8.99984 4.21895 8.99984 3.66666C8.99984 3.11438 8.55212 2.66666 7.99984 2.66666Z" fill="#5F7686"/>
<path fill-rule="evenodd" clip-rule="evenodd" d="M5.6665 12.3333C5.6665 11.0447 6.71117 10 7.99984 10C9.2885 10 10.3332 11.0447 10.3332 12.3333C10.3332 13.622 9.2885 14.6667 7.99984 14.6667C6.71117 14.6667 5.6665 13.622 5.6665 12.3333ZM7.99984 11.3333C7.44755 11.3333 6.99984 11.781 6.99984 12.3333C6.99984 12.8856 7.44755 13.3333 7.99984 13.3333C8.55212 13.3333 8.99984 12.8856 8.99984 12.3333C8.99984 11.781 8.55212 11.3333 7.99984 11.3333Z" fill="#5F7686"/>
<path d="M1.33317 7.33333C0.964981 7.33333 0.666504 7.6318 0.666504 8C0.666504 8.36819 0.964981 8.66666 1.33317 8.66666H14.6665C15.0347 8.66666 15.3332 8.36819 15.3332 8C15.3332 7.6318 15.0347 7.33333 14.6665 7.33333H1.33317Z" fill="#5F7686"/>
</svg>
