<svg width="16" height="17" viewBox="0 0 16 17" fill="none" xmlns="http://www.w3.org/2000/svg">
<path d="M8.66357 2.45182C8.66357 2.08363 8.3651 1.78516 7.99691 1.78516C7.62872 1.78516 7.33024 2.08363 7.33024 2.45182V9.50625L5.47108 7.64709C5.21073 7.38674 4.78862 7.38674 4.52827 7.64709C4.26792 7.90743 4.26792 8.32954 4.52827 8.58989L7.49068 11.5523C7.61295 11.6948 7.79438 11.7852 7.99691 11.7852L7.99826 11.7852C8.16934 11.7855 8.34054 11.7204 8.47108 11.5899L11.4711 8.58989C11.7314 8.32954 11.7314 7.90743 11.4711 7.64709C11.2107 7.38674 10.7886 7.38674 10.5283 7.64709L8.66357 9.51178V2.45182Z" fill="#435D70"/>
<path d="M13.9997 7.78516C14.3679 7.78516 14.6663 8.08363 14.6663 8.45182V14.4518C14.6663 14.82 14.3679 15.1185 13.9997 15.1185H1.99967C1.63148 15.1185 1.33301 14.82 1.33301 14.4518V8.45459C1.33301 8.0864 1.63148 7.78792 1.99967 7.78792C2.36786 7.78792 2.66634 8.0864 2.66634 8.45459V13.7852H13.333V8.45182C13.333 8.08363 13.6315 7.78516 13.9997 7.78516Z" fill="#435D70"/>
</svg>
