<svg width="16" height="16" viewBox="0 0 16 16" fill="none" xmlns="http://www.w3.org/2000/svg">
<path fill-rule="evenodd" clip-rule="evenodd" d="M5.80457 0.861926C5.54423 0.601577 5.12212 0.601577 4.86177 0.861926C4.60142 1.12228 4.60142 1.54439 4.86177 1.80474L6.39036 3.33333H1.33317C0.964981 3.33333 0.666504 3.63181 0.666504 4V6.66666C0.666504 7.03485 0.964981 7.33333 1.33317 7.33333H1.6665V14.6667C1.6665 15.0349 1.96498 15.3333 2.33317 15.3333H13.6665C14.0347 15.3333 14.3332 15.0349 14.3332 14.6667V7.33333H14.6665C15.0347 7.33333 15.3332 7.03485 15.3332 6.66666V4C15.3332 3.63181 15.0347 3.33333 14.6665 3.33333H9.60931L11.1379 1.80474C11.3983 1.54439 11.3983 1.12228 11.1379 0.861926C10.8776 0.601577 10.4554 0.601577 10.1951 0.861926L7.99984 3.05719L5.80457 0.861926ZM8.6665 7.33333H12.9998V14H8.6665V7.33333ZM2.99984 7.33333H7.33317V14H2.99984V7.33333ZM13.9998 6H1.99984V4.66666H13.9998V6Z" fill="#5F7686"/>
</svg>
