<svg width="16" height="16" viewBox="0 0 16 16" fill="none" xmlns="http://www.w3.org/2000/svg">
<path d="M5.33366 6.20829C5.33366 4.73554 6.52757 3.54163 8.00033 3.54163C9.47308 3.54163 10.667 4.73554 10.667 6.20829C10.667 7.45085 9.81714 8.49492 8.66699 8.79095V9.54163C8.66699 9.90982 8.36851 10.2083 8.00033 10.2083C7.63214 10.2083 7.33366 9.90982 7.33366 9.54163V8.20829C7.33366 7.8401 7.63214 7.54163 8.00033 7.54163C8.7367 7.54163 9.33366 6.94467 9.33366 6.20829C9.33366 5.47192 8.7367 4.87496 8.00033 4.87496C7.26395 4.87496 6.66699 5.47192 6.66699 6.20829C6.66699 6.57648 6.36852 6.87496 6.00033 6.87496C5.63214 6.87496 5.33366 6.57648 5.33366 6.20829Z" fill="#5F7686"/>
<path d="M8.83366 11.7083C8.83366 12.1685 8.46056 12.5416 8.00033 12.5416C7.54009 12.5416 7.16699 12.1685 7.16699 11.7083C7.16699 11.2481 7.54009 10.875 8.00033 10.875C8.46056 10.875 8.83366 11.2481 8.83366 11.7083Z" fill="#5F7686"/>
<path fill-rule="evenodd" clip-rule="evenodd" d="M2.81488 2.8145C4.14123 1.48817 5.97548 0.666626 8.00033 0.666626C10.0252 0.666626 11.8594 1.48817 13.1858 2.81451C14.5121 4.14086 15.3337 5.97511 15.3337 7.99996C15.3337 10.0248 14.5121 11.8591 13.1858 13.1854C11.8594 14.5117 10.0252 15.3333 8.00033 15.3333C5.97548 15.3333 4.14123 14.5117 2.81488 13.1854C1.48854 11.8591 0.666992 10.0248 0.666992 7.99996C0.666992 5.97511 1.48854 4.14086 2.81488 2.8145ZM8.00033 1.99996C6.3433 1.99996 4.84422 2.6708 3.75768 3.75732C2.67116 4.84386 2.00033 6.34294 2.00033 7.99996C2.00033 9.65698 2.67117 11.1561 3.75768 12.2426C4.84422 13.3291 6.34331 14 8.00033 14C9.65734 14 11.1564 13.3291 12.243 12.2426C13.3295 11.1561 14.0003 9.65698 14.0003 7.99996C14.0003 6.34294 13.3295 4.84385 12.243 3.75732C11.1564 2.6708 9.65735 1.99996 8.00033 1.99996Z" fill="#5F7686"/>
</svg>
