<svg width="18" height="18" viewBox="0 0 18 18" fill="none" xmlns="http://www.w3.org/2000/svg">
<path fill-rule="evenodd" clip-rule="evenodd" d="M9.53033 5.03033C9.82322 4.73744 9.82322 4.26256 9.53033 3.96967C9.23744 3.67678 8.76256 3.67678 8.46967 3.96967L4.01065 8.42869C3.85104 8.56623 3.75 8.76985 3.75 8.99707L3.75 8.99854C3.74963 9.19097 3.82285 9.38351 3.96967 9.53033L8.46967 14.0303C8.76256 14.3232 9.23744 14.3232 9.53033 14.0303C9.82322 13.7374 9.82322 13.2626 9.53033 12.9697L6.30773 9.74707H13.5C13.9142 9.74707 14.25 9.41128 14.25 8.99707C14.25 8.58286 13.9142 8.24707 13.5 8.24707H6.31359L9.53033 5.03033Z" fill="white"/>
</svg>
