<svg width="24" height="24" viewBox="0 0 24 24" fill="none" xmlns="http://www.w3.org/2000/svg">
<path d="M7.46135 8.60481H3.60433C3.39554 8.60481 3.21973 8.78063 3.21973 8.98942V20.5934C3.21973 20.8022 3.39554 20.978 3.60433 20.978H7.46135C7.67013 20.978 7.84595 20.8022 7.84595 20.5934V8.98942C7.84595 8.78063 7.68112 8.60481 7.46135 8.60481Z" fill="#435D70"/>
<path d="M5.51675 7.79164H5.53872C6.29694 7.79164 6.94527 7.5389 7.3958 7.09936C7.85733 6.64882 8.11007 6.04445 8.09908 5.39612V5.38513C8.09908 5.06646 8.03315 4.74779 7.91227 4.45109C7.73645 4.01155 7.41778 3.64892 7.02219 3.39618C6.58264 3.13245 6.07717 2.9896 5.5607 3.00059C4.81347 3.00059 4.16514 3.25333 3.71461 3.68189C3.25308 4.13242 2.98936 4.74778 3.00034 5.39612C2.98936 6.03346 3.2421 6.64882 3.70362 7.08837C4.18712 7.56088 4.83545 7.80263 5.51675 7.79164Z" fill="#435D70"/>
<path d="M9.22022 19.8133C9.22022 20.055 9.22022 20.2528 9.22022 20.3957V20.6045C9.22022 20.8133 9.38505 20.9891 9.60482 20.9891H13.4618C13.6706 20.9891 13.8464 20.8133 13.8464 20.6045V14.1212C13.8464 13.9673 13.8574 13.8135 13.8684 13.6596C13.8794 13.5498 13.9014 13.4399 13.9453 13.33C14.0662 13.0113 14.264 12.7366 14.5277 12.5168C14.6596 12.4069 14.8134 12.319 14.9783 12.2531C15.1651 12.1872 15.3629 12.1542 15.5717 12.1542C15.8244 12.1432 16.0662 12.1982 16.2969 12.308C16.4398 12.374 16.5606 12.4729 16.6595 12.5937C16.8354 12.8025 16.9562 13.0553 17.0222 13.319C17.1101 13.6706 17.154 14.0333 17.143 14.4069V20.6155C17.143 20.8242 17.3189 21.0001 17.5276 21.0001H21.3847C21.5934 21.0001 21.7693 20.8242 21.7693 20.6155V13.9563C21.7802 13.1322 21.6594 12.308 21.4066 11.5169C21.055 10.4619 20.4506 9.65978 19.6704 9.13232C18.8902 8.60487 17.9452 8.35213 16.9343 8.35213C16.4398 8.35213 15.9563 8.41806 15.4837 8.56091C14.9233 8.73673 14.4069 9.02243 13.9783 9.41803C13.9344 9.46198 13.8794 9.50593 13.8355 9.54989V9.01145C13.8355 8.80266 13.6596 8.62684 13.4508 8.62684H9.58285C9.37406 8.62684 9.19824 8.80266 9.19824 9.01145C9.19824 9.02243 9.19824 9.02243 9.19824 9.03342C9.19824 9.11034 9.20923 9.26418 9.20923 9.47297C9.22022 10.0993 9.22022 11.2202 9.22022 12.5058C9.22022 14.2201 9.20923 16.253 9.20923 17.8463C9.22022 18.6265 9.22022 19.3188 9.22022 19.8133Z" fill="#435D70"/>
</svg>
