<svg width="30" height="48" viewBox="0 0 30 48" fill="none" xmlns="http://www.w3.org/2000/svg">
<path d="M14.8277 6L18.4234 11.4958H11.232L14.8277 6Z" fill="#82FF6F"/>
<path d="M14.8756 38.0006C18.9305 38.0006 21.7807 35.3765 21.7807 31.5014C21.7807 28.6943 20.1352 27.1076 18.6954 26.3448V26.0702C19.8708 25.3684 20.9873 23.7512 20.9873 21.6763C20.9873 18.1674 18.2841 15.8789 14.8756 15.8789C11.6141 15.8789 8.79334 18.1674 8.79334 21.6763C8.79334 23.7512 9.88051 25.3684 11.0558 26.0702V26.3448C9.61607 27.1076 8 28.6943 8 31.5014C8 35.3765 10.8208 38.0006 14.8756 38.0006ZM14.8756 24.5445C13.2008 24.5445 12.1724 23.2935 12.1724 21.8289C12.1724 20.3643 13.142 19.1438 14.8756 19.1438C16.5799 19.1438 17.5789 20.3643 17.5789 21.8289C17.5789 23.2935 16.5505 24.5445 14.8756 24.5445ZM14.8756 34.6442C12.6425 34.6442 11.4672 33.0576 11.4672 31.4099C11.4672 29.3961 12.9364 28.1145 14.8756 28.1145C16.8443 28.1145 18.2841 29.3961 18.2841 31.4099C18.2841 33.0576 17.1087 34.6442 14.8756 34.6442Z" fill="white"/>
</svg>
