<svg width="14" height="14" viewBox="0 0 14 14" fill="none" xmlns="http://www.w3.org/2000/svg">
<path d="M0.333008 0.999919C0.333008 0.631729 0.631485 0.333252 0.999674 0.333252H6.99691C7.3651 0.333252 7.66357 0.631729 7.66357 0.999919C7.66357 1.36811 7.3651 1.66659 6.99691 1.66659H1.66634V12.3333H6.99967C7.36786 12.3333 7.66634 12.6317 7.66634 12.9999C7.66634 13.3681 7.36786 13.6666 6.99967 13.6666H0.999674C0.631485 13.6666 0.333008 13.3681 0.333008 12.9999V0.999919Z" fill="#941E00"/>
<path d="M9.52827 3.52851C9.78862 3.26816 10.2107 3.26816 10.4711 3.52851L13.4347 6.49209C13.5765 6.61435 13.6663 6.79534 13.6663 6.99731L13.6663 6.99854C13.6667 7.16961 13.6016 7.3408 13.4711 7.47132L10.4711 10.4713C10.2107 10.7317 9.78862 10.7317 9.52827 10.4713C9.26792 10.211 9.26792 9.78886 9.52827 9.52851L11.3928 7.66398H4.33301C3.96482 7.66398 3.66634 7.3655 3.66634 6.99731C3.66634 6.62912 3.96482 6.33065 4.33301 6.33065H11.3876L9.52827 4.47132C9.26792 4.21097 9.26792 3.78886 9.52827 3.52851Z" fill="#941E00"/>
</svg>
