<svg width="16" height="14" viewBox="0 0 16 14" fill="none" xmlns="http://www.w3.org/2000/svg">
<path fill-rule="evenodd" clip-rule="evenodd" d="M3.30176 0.0460614C3.31882 0.0393693 3.33618 0.0333719 3.3538 0.0280916C3.42253 0.00744363 3.49222 -0.00154425 3.56065 5.96202e-05H12.4387C12.5069 -0.00153928 12.5764 0.00738804 12.6449 0.0279C12.6628 0.0332265 12.6803 0.0392885 12.6976 0.0460615C12.8451 0.10381 12.9611 0.208996 13.0341 0.33782L15.572 4.75801C15.6246 4.84571 15.6575 4.94648 15.6648 5.05429C15.6655 5.06474 15.666 5.0752 15.6662 5.08566C15.6664 5.09563 15.6664 5.1056 15.6662 5.11557C15.6625 5.2756 15.6025 5.4217 15.5051 5.53478L8.51205 13.76C8.49421 13.7814 8.47509 13.8016 8.45483 13.8205C8.42049 13.8526 8.38288 13.8809 8.34266 13.9051C8.24135 13.9659 8.12346 14.0001 7.99968 14.0001C7.79777 14.0001 7.61156 13.9091 7.48735 13.76L0.49427 5.53482C0.396865 5.42169 0.336795 5.2755 0.333186 5.11537C0.332833 5.1001 0.333004 5.0848 0.333701 5.06951C0.338821 4.95597 0.372345 4.84982 0.427335 4.75801L2.96521 0.337865C3.03821 0.209021 3.1542 0.103816 3.30176 0.0460614ZM6.77541 1.33339H4.48628L5.29324 3.62802L6.77541 1.33339ZM6.36032 4.43339H9.63905L7.99968 1.89541L6.36032 4.43339ZM10.7061 3.62802L9.22395 1.33339H11.5131L10.7061 3.62802ZM12.6005 2.26034L13.8482 4.43339H11.8363L12.6005 2.26034ZM7.99968 11.3239L9.954 5.76673H6.04537L7.99968 11.3239ZM3.39888 2.26034L4.16309 4.43339H2.1512L3.39888 2.26034ZM4.63199 5.76673H2.44153L6.17719 10.1606L4.63199 5.76673ZM13.5578 5.76673H11.3674L9.82217 10.1606L13.5578 5.76673Z" fill="#5F7686"/>
</svg>
