<svg width="16" height="16" viewBox="0 0 16 16" fill="none" xmlns="http://www.w3.org/2000/svg">
<path d="M4.66699 5.33329C4.2988 5.33329 4.00033 5.63177 4.00033 5.99996C4.00033 6.36815 4.2988 6.66663 4.66699 6.66663H10.667C11.0352 6.66663 11.3337 6.36815 11.3337 5.99996C11.3337 5.63177 11.0352 5.33329 10.667 5.33329H4.66699Z" fill="#5F7686"/>
<path d="M4.00033 8.66663C4.00033 8.29844 4.2988 7.99996 4.66699 7.99996H10.667C11.0352 7.99996 11.3337 8.29844 11.3337 8.66663C11.3337 9.03482 11.0352 9.33329 10.667 9.33329H4.66699C4.2988 9.33329 4.00033 9.03482 4.00033 8.66663Z" fill="#5F7686"/>
<path d="M4.66699 10.6666C4.2988 10.6666 4.00033 10.9651 4.00033 11.3333C4.00033 11.7015 4.2988 12 4.66699 12H8.00033C8.36851 12 8.66699 11.7015 8.66699 11.3333C8.66699 10.9651 8.36851 10.6666 8.00033 10.6666H4.66699Z" fill="#5F7686"/>
<path fill-rule="evenodd" clip-rule="evenodd" d="M0.666992 7.99996V14.6666C0.666992 15.0348 0.965522 15.3333 1.33371 15.3333H8.00033C12.0504 15.3333 15.3337 12.05 15.3337 7.99996C15.3337 3.94987 12.0504 0.666626 8.00033 0.666626C3.95024 0.666626 0.666992 3.94987 0.666992 7.99996ZM2.00033 7.99996C2.00033 4.68625 4.68662 1.99996 8.00033 1.99996C11.314 1.99996 14.0003 4.68625 14.0003 7.99996C14.0003 11.3137 11.314 14 8.00033 14H2.00033V7.99996Z" fill="#5F7686"/>
</svg>
