<svg width="16" height="16" viewBox="0 0 16 16" fill="none" xmlns="http://www.w3.org/2000/svg">
<path fill-rule="evenodd" clip-rule="evenodd" d="M7.60484 0.796284C7.83981 0.623458 8.15986 0.623458 8.39484 0.796284L10.1598 2.09445C11.2203 2.8744 11.9437 4.00971 12.2145 5.27189L14.1379 7.19526C14.2629 7.32028 14.3332 7.48985 14.3332 7.66666V10.3333C14.3332 10.5644 14.2135 10.779 14.017 10.9004C13.8204 11.0219 13.575 11.0329 13.3684 10.9296L12.3332 10.412V12.3333C12.3332 12.7015 12.0347 13 11.6665 13H10.6665V14C10.6665 14.3682 10.368 14.6667 9.99984 14.6667C9.63165 14.6667 9.33317 14.3682 9.33317 14V13H8.6665V14.6667C8.6665 15.0349 8.36803 15.3333 7.99984 15.3333C7.63165 15.3333 7.33317 15.0349 7.33317 14.6667V13H6.6665V14C6.6665 14.3682 6.36803 14.6667 5.99984 14.6667C5.63165 14.6667 5.33317 14.3682 5.33317 14V13H4.33317C3.96498 13 3.6665 12.7015 3.6665 12.3333V10.412L2.63131 10.9296C2.42465 11.0329 2.17923 11.0219 1.98268 10.9004C1.78614 10.779 1.6665 10.5644 1.6665 10.3333V7.66666C1.6665 7.48985 1.73674 7.32028 1.86177 7.19526L3.78513 5.27189C4.05598 4.00971 4.77941 2.8744 5.83984 2.09445L7.60484 0.796284ZM4.99984 6.39082V11.6667H10.9998V6.39082C10.9998 5.11864 10.3947 3.92231 9.36984 3.16854L7.99984 2.1609L6.62984 3.16854C5.605 3.92231 4.99984 5.11864 4.99984 6.39082ZM3.6665 7.27614V8.92131L2.99984 9.25464V7.94281L3.6665 7.27614ZM12.3332 8.92131L12.9998 9.25464V7.94281L12.3332 7.27614V8.92131Z" fill="#305CFF"/>
</svg>
