<svg width="14" height="14" viewBox="0 0 14 14" fill="none" xmlns="http://www.w3.org/2000/svg">
<path d="M7 5.83337C7.32217 5.83337 7.58333 6.09454 7.58333 6.41671V8.16671C7.58333 8.48887 7.32217 8.75004 7 8.75004H5.25C4.92783 8.75004 4.66667 8.48887 4.66667 8.16671C4.66667 7.84454 4.92783 7.58337 5.25 7.58337H6.41667V6.41671C6.41667 6.09454 6.67783 5.83337 7 5.83337Z" fill="#26445A"/>
<path fill-rule="evenodd" clip-rule="evenodd" d="M5.83333 0.583374C5.51117 0.583374 5.25 0.844541 5.25 1.16671C5.25 1.48887 5.51117 1.75004 5.83333 1.75004H6.41667V2.94875C3.7917 3.23893 1.75 5.46438 1.75 8.16671C1.75 11.0662 4.1005 13.4167 7 13.4167C9.89949 13.4167 12.25 11.0662 12.25 8.16671C12.25 6.85268 11.7672 5.65141 10.9694 4.73057L11.4958 4.20419C11.7236 3.97638 11.7236 3.60703 11.4958 3.37923C11.268 3.15142 10.8987 3.15142 10.6709 3.37923L10.112 3.93806C9.38858 3.40476 8.52335 3.05266 7.58333 2.94875V1.75004H8.16667C8.48883 1.75004 8.75 1.48887 8.75 1.16671C8.75 0.844541 8.48883 0.583374 8.16667 0.583374H5.83333ZM2.91667 8.16671C2.91667 5.91154 4.74484 4.08337 7 4.08337C9.25516 4.08337 11.0833 5.91154 11.0833 8.16671C11.0833 10.4219 9.25516 12.25 7 12.25C4.74484 12.25 2.91667 10.4219 2.91667 8.16671Z" fill="#26445A"/>
</svg>
