<svg width="24" height="24" viewBox="0 0 24 24" fill="none" xmlns="http://www.w3.org/2000/svg">
<path d="M17.5484 2.96431C18.2363 3.30144 18.8185 3.80772 19.3036 4.44821C19.7183 4.47498 20.2079 4.30426 20.8216 3.73734C21.1134 3.46778 21.5371 3.39651 21.901 3.55577C22.265 3.71504 22.5001 4.07463 22.5001 4.47189C22.5001 5.8854 22.2335 6.80717 21.8532 7.52735C21.6798 7.85586 21.4913 8.12445 21.3454 8.33238L21.3454 8.33241L21.3277 8.35773C21.2324 8.49364 21.1597 8.59919 21.1014 8.6944L21.1023 8.83C21.1196 11.3949 21.1571 16.9254 15.94 20.1851C13.104 21.957 9.77598 21.6488 7.18957 20.9362C4.70099 20.2506 2.69694 19.135 2.09555 18.8003L2.0163 18.7562C1.58624 18.5185 1.39266 18.0035 1.55963 17.5413C1.7266 17.0791 2.20463 16.8068 2.68735 16.8988C3.63945 17.0802 4.88854 16.9057 6.47592 16.2537C4.82661 15.2003 3.65006 13.9314 3.06399 12.409C1.97286 9.57452 2.52785 7.02712 3.02947 5.0999C3.13046 4.71192 3.4534 4.42175 3.84994 4.3627C4.24648 4.30365 4.63995 4.48713 4.8496 4.82886C5.55528 5.97911 6.54654 7.23254 7.72113 7.98239C8.68929 8.60046 9.75637 8.87006 10.9659 8.45929C10.9278 7.12583 11.111 5.86433 11.6124 4.83572C12.2324 3.56363 13.3289 2.68649 14.8899 2.52967C15.8382 2.4344 16.7359 2.56606 17.5484 2.96431Z" fill="#435D70"/>
</svg>
