<svg width="16" height="16" viewBox="0 0 16 16" fill="none" xmlns="http://www.w3.org/2000/svg">
<path fill-rule="evenodd" clip-rule="evenodd" d="M2.99984 2.33334C2.99984 1.96515 3.29831 1.66667 3.6665 1.66667H12.3332C12.7014 1.66667 12.9998 1.96515 12.9998 2.33334V3.00001H14.6665C15.0347 3.00001 15.3332 3.29848 15.3332 3.66667V12.3333C15.3332 12.7015 15.0347 13 14.6665 13H12.9998V13.6667C12.9998 14.0349 12.7014 14.3333 12.3332 14.3333H3.6665C3.29831 14.3333 2.99984 14.0349 2.99984 13.6667V13H1.33317C0.964981 13 0.666504 12.7015 0.666504 12.3333V3.66667C0.666504 3.29848 0.964981 3.00001 1.33317 3.00001H2.99984V2.33334ZM4.33317 13H11.6665V3.00001H4.33317V13ZM2.99984 4.33334H1.99984V11.6667H2.99984V4.33334ZM12.9998 11.6667H13.9998V4.33334H12.9998V11.6667ZM7.0186 6.07889C7.23537 5.96288 7.4984 5.97559 7.70297 6.11197L9.70297 7.4453C9.88844 7.56895 9.99984 7.7771 9.99984 8C9.99984 8.22291 9.88844 8.43106 9.70297 8.5547L7.70297 9.88804C7.4984 10.0244 7.23537 10.0371 7.0186 9.92112C6.80183 9.80511 6.6665 9.5792 6.6665 9.33334V6.66667C6.6665 6.42081 6.80183 6.1949 7.0186 6.07889ZM7.99984 7.91235V8.08766L8.13132 8L7.99984 7.91235Z" fill="#5F7686"/>
</svg>
